<svg width="507.65000000000003" height="90.44875739039662" viewBox="0 0 375 66.81430911336301" class="looka-1j8o68f">
  <defs id="SvgjsDefs1078"></defs>
  <g id="SvgjsG1079" featurekey="nRdZyp-0" transform="matrix(0.8271298862315974,0,0,0.8271298862315974,-24.50786099013732,-31.34325650479603)" fill="#000000">
    <g xmlns="http://www.w3.org/2000/svg" fill="#000000">
      <path d="M71.96 42.73q9.3 0 38.15.03a4.16 4.15.1 0 1 4.15 4.15v51.84q0 4.49-4.76 4.5-29.66.08-34.34.09-.61 0-.61.61v9.01q0 .57.58.56 5.18-.07 13.36-.04c2.6.01 3.45 3.46 1.64 4.71q-.66.45-2.58.46-3.49.03-15.61.02-12.12 0-15.62-.02-1.91-.02-2.57-.47c-1.81-1.25-.96-4.7 1.64-4.71q8.18-.02 13.36.05.58.01.58-.56l.01-9.01q0-.61-.61-.61-4.68-.01-34.34-.11-4.76-.02-4.76-4.51l.03-51.84a4.16 4.15 0 0 1 4.15-4.14q28.85-.01 38.15-.01m-8.93 19.18H74.8a2.03 2.02-90 0 1 2.02 2.03v11.2a2 1.99 90 0 1-1.99 2H72.2q-1.32 0-.32.86c6.64 5.74 16.46 4.16 22.36-1.77 7.44-7.47 7.7-19.13 2.16-27.77q-.3-.47-.85-.47H35.47q-.52 0-.52.53v49a.6.59-90 0 0 .59.6h72.82a.6.6 0 0 0 .6-.6V48.46q0-.5-.5-.5h-8.15q-.55 0-.3.5c4.98 9.96 4.51 20.99-2.8 29.13-7.82 8.71-22.2 10.23-29.5-.11q-.29-.4-.78-.42c-3-.1-5.85 1.18-5.86-3.28q0-6.42.04-9.96a1.93 1.92-89.7 0 1 1.92-1.91m10.763 3.837a.79.79 0 0 0-.787-.793l-8.2-.028a.79.79 0 0 0-.793.787l-.026 7.54a.79.79 0 0 0 .787.793l8.2.028a.79.79 0 0 0 .793-.787z"></path>
      <rect width="6.82" height="6.12" x="-3.41" y="-3.06" rx=".67" transform="rotate(-.3 13313.686 -13129.865)"></rect>
    </g>
  </g>
  <g id="SvgjsG1080" featurekey="Q4qmbg-0" transform="matrix(3.2195238090642975,0,0,3.2195238090642975,98.2195238090643,-11.483961533963942)" fill="#000000">
    <path d="M4.62 7.279999999999999 c0 0.84 -0.68 1.5 -1.56 1.5 s-1.58 -0.66 -1.58 -1.5 c0 -0.82 0.7 -1.46 1.58 -1.46 s1.56 0.64 1.56 1.46 z M-1 23.06 l0 -2.68 c0.48 0.32 0.64 0.48 1.46 0.48 c0.34 0 1.08 -0.2 1.08 -1.58 l0 -9.16 l2.96 0 l0 9.16 c0 3.2 -1.1 4.38 -2.98 4.38 c-1.08 0 -1.16 0 -2.52 -0.6 z M16.147708333333334 15.08 l0 0.66 l-7.04 0 c0 1.16 1.18 1.98 2.16 1.98 c0.96 0 1.84 -0.38 2.3 -1.22 l1.98 1.82 c-0.8 1.08 -2.02 1.84 -4.28 1.84 c-3.24 0 -5.22 -2.16 -5.22 -5.08 s1.92 -5.1 5.04 -5.1 s5.06 2.14 5.06 5.1 z M9.167708333333334 13.86 l3.88 0 c-0.16 -0.94 -0.84 -1.44 -1.96 -1.44 c-1.08 0 -1.74 0.58 -1.92 1.44 z M28.175416666666663 10.12 l3.02 0 l-3.76 9.88 l-1.94 0 l-1.84 -4.78 c-0.62 1.66 -1.22 3.22 -1.8 4.78 l-1.96 0 l-3.78 -9.88 l3.04 0 l1.72 5.44 l1.7 -5.44 l2.18 0 l1.7 5.46 z M41.723124999999996 15.08 l0 0.66 l-7.04 0 c0 1.16 1.18 1.98 2.16 1.98 c0.96 0 1.84 -0.38 2.3 -1.22 l1.98 1.82 c-0.8 1.08 -2.02 1.84 -4.28 1.84 c-3.24 0 -5.22 -2.16 -5.22 -5.08 s1.92 -5.1 5.04 -5.1 s5.06 2.14 5.06 5.1 z M34.74312499999999 13.86 l3.88 0 c-0.16 -0.94 -0.84 -1.44 -1.96 -1.44 c-1.08 0 -1.74 0.58 -1.92 1.44 z M45.73083333333333 5.119999999999999 l0 14.88 l-2.98 0 l0 -14.88 l2.98 0 z M51.018541666666664 15.8 c0 0.72 -0.02 1.92 1.08 1.92 c0.54 0 0.88 -0.22 1.26 -0.5 l0 2.44 c-0.46 0.26 -1.02 0.5 -1.62 0.5 c-2.54 0 -3.68 -1.08 -3.68 -4.36 l0 -3.24 l-1.1 0 l0 -2.44 l1.1 0 l0 -2.84 l2.96 0 l0 2.84 l2.34 0 l0 2.44 l-2.34 0 l0 3.24 z M61.70624999999999 10.26 l-0.4 2.22 c-0.74 -0.32 -0.88 -0.26 -1.22 -0.26 c-1.2 0 -1.9 0.64 -1.9 2.22 l0 5.56 l-2.96 0 l0 -9.88 l2.96 0 l0 0.88 c0.38 -0.68 1.42 -1.02 2.08 -1.02 c0.62 0 0.98 0.02 1.44 0.28 z M64.37395833333332 13.04 l-2.2 -1.26 c1.1 -1.24 2.58 -1.82 4.12 -1.82 c2.96 0 4.16 1.62 4.16 3.14 l0 6.9 l-2.96 0 l0 -0.7 c-0.46 0.48 -1.28 0.84 -2.2 0.84 c-2.7 0 -3.74 -1.2 -3.74 -3.04 c0 -2.08 1.68 -3.48 4.4 -3.48 l1.54 0 c0 -0.74 -0.56 -1.22 -1.4 -1.22 c-0.86 0 -1.28 0.16 -1.72 0.64 z M67.49395833333332 16.740000000000002 l0 -0.88 l-1.74 0 c-0.78 0 -1.36 0.54 -1.24 1.3 c0.08 0.54 0.56 0.76 1.24 0.76 c1.3 0 1.74 -0.74 1.74 -1.18 z M75.12166666666666 10.12 l0 9.88 l-2.96 0 l0 -9.88 l2.96 0 z M75.20166666666665 7.279999999999999 c0 0.84 -0.68 1.5 -1.58 1.5 c-0.86 0 -1.56 -0.66 -1.56 -1.5 c0 -0.82 0.7 -1.46 1.56 -1.46 c0.9 0 1.58 0.64 1.58 1.46 z M85.96937499999999 14.36 l0 5.64 l-2.96 0 l0 -5.64 c0 -1.5 -0.4 -2.16 -1.56 -2.16 c-1.2 0 -1.9 0.66 -1.9 2.16 l0 5.64 l-2.96 0 l0 -9.88 l2.96 0 l0 0.94 c0.76 -0.74 1.8 -1.08 2.66 -1.08 c2.78 0 3.76 1.34 3.76 4.38 z"></path>
  </g>
</svg>